<svg xmlns="http://www.w3.org/2000/svg" width="60" height="60" viewBox="0 0 60 60">
  <g id="Group_4" data-name="Group 4" transform="translate(-1468 -279)">
    <g id="section4-financial-icon3" transform="translate(1468.403 280.621)">
      <path id="Path_12" data-name="Path 12" d="M14.1,52.79H44.75a2.329,2.329,0,0,0-.13-.27q-4.93-8.22-9.86-16.43A2,2,0,0,1,34.47,35V21.49a1.32,1.32,0,0,1,1.33-1.34h3.64a1.23,1.23,0,0,1,.48,2.38,1.36,1.36,0,0,1-.49.08H37.29c-.33,0-.35.14-.35.39V34.1a2.55,2.55,0,0,0,.39,1.4C40.88,41.45,44.41,47.37,48,53.27a1.33,1.33,0,0,1-1.16,2.09H12.21a1.43,1.43,0,0,1-1.54-.93,1,1,0,0,1,0-.75c1.11-1.91,2.25-3.82,3.39-5.72l7.72-12.89a.84.84,0,0,0,.11-.41q0-5.83,0-11.67c0-.27-.08-.35-.34-.34H19.41a1.24,1.24,0,1,1,0-2.47h3.73a1.21,1.21,0,0,1,1.24,1.26v13.8a1.5,1.5,0,0,1-.23.74q-2.475,4.185-5,8.33c-1.68,2.77-3.31,5.52-5,8.27l-.08.2" fill="#7fbe26"/>
      <path id="Path_13" data-name="Path 13" d="M22.92,47.79h13L29.42,37l-6.5,10.84m6.47,2.49H20.94a1.31,1.31,0,0,1-1.29-.64,1.35,1.35,0,0,1,.11-1.44q3.52-5.85,7-11.71a1.07,1.07,0,0,0,.13-.48q0-1.095,0-2.19a1.16,1.16,0,0,1,1.18-1.07h2.58a1.19,1.19,0,0,1,1.19,1.17c0,.67,0,1.35,0,2a1.11,1.11,0,0,0,.14.54l7,11.65a2.76,2.76,0,0,1,.25.52,1.23,1.23,0,0,1-1.14,1.61h-8.7Z" fill="#7fbe26"/>
      <path id="Path_14" data-name="Path 14" d="M25.67,10.15a1.29,1.29,0,0,0-1.24-1.28,1.275,1.275,0,1,0,1.24,1.28m-5,0a3.75,3.75,0,1,1,3.75,3.76,3.75,3.75,0,0,1-3.75-3.76" fill="#7fbe26"/>
      <path id="Path_15" data-name="Path 15" d="M30.68,20.17a1.22,1.22,0,0,0-1.25-1.24,1.26,1.26,0,1,0,1.25,1.24m-5,0A3.74,3.74,0,1,1,29.4,23.935,3.74,3.74,0,0,1,25.68,20.17" fill="#7fbe26"/>
      <path id="Path_16" data-name="Path 16" d="M34.45,3.87a1.24,1.24,0,0,0-1.26,1.27,1.27,1.27,0,0,0,1.26,1.25,1.3,1.3,0,0,0,1.27-1.25,1.27,1.27,0,0,0-1.27-1.27m0,5a3.66,3.66,0,0,1-3.76-3.74,3.63,3.63,0,0,1,3.73-3.75,3.69,3.69,0,0,1,3.75,3.71,3.72,3.72,0,0,1-3.72,3.78" fill="#7fbe26"/>
    </g>
    <rect id="Rectangle_4" data-name="Rectangle 4" width="60" height="60" transform="translate(1468 279)" fill="none"/>
  </g>
</svg>
