<svg xmlns="http://www.w3.org/2000/svg" width="60" height="60" viewBox="0 0 60 60">
  <g id="Group_9" data-name="Group 9" transform="translate(-1860 -285)">
    <g id="section4-financial-icon8" transform="translate(1856.81 287.646)">
      <path id="Path_30" data-name="Path 30" d="M26.45,21.27a5.69,5.69,0,1,0,5.735,5.645A5.69,5.69,0,0,0,26.45,21.27m-.07,20H24.62a.89.89,0,0,1-1-.89c-.12-.88-.23-1.77-.36-2.65a.59.59,0,0,0-.17-.39,12.84,12.84,0,0,0-1.46-.67.952.952,0,0,0-.45.19c-.76.56-1.5,1.13-2.24,1.7a.68.68,0,0,1-1,0c-1-1-2-2-2.93-3a.74.74,0,0,1,0-1.1c.55-.68,1.08-1.38,1.63-2.06a.54.54,0,0,0,.06-.71c-.2-.36-.33-.75-.54-1.1a.81.81,0,0,0-.46-.38c-.93-.18-1.87-.32-2.81-.46-.5-.08-.7-.28-.7-.78V25c0-.56.14-.71.7-.81,1-.17,1.93-.32,2.89-.51a.74.74,0,0,0,.41-.31,7.93,7.93,0,0,0,.53-1.1.68.68,0,0,0-.06-.56c-.51-.69-1.07-1.35-1.61-2s-.48-.92,0-1.4c.91-.95,1.85-1.87,2.81-2.77.48-.43.68-.4,1.2,0s1.29,1,1.92,1.54a.7.7,0,0,0,1,.1,4.47,4.47,0,0,1,.81-.34.72.72,0,0,0,.47-.67c.09-.9.21-1.8.35-2.7a.88.88,0,0,1,.94-.75h3.78a.74.74,0,0,1,.82.69c.16.92.27,1.85.43,2.77a.82.82,0,0,0,.29.53,7.37,7.37,0,0,0,1.27.6.68.68,0,0,0,.47-.14c.75-.55,1.5-1.12,2.24-1.69.3-.23.6-.34.92-.07a20.12,20.12,0,0,1,3.15,3.24.54.54,0,0,1,0,.74c-.56.72-1.09,1.45-1.66,2.16a.68.68,0,0,0-.14.76,8.07,8.07,0,0,0,.49,1.12,1,1,0,0,0,.6.42c1,.19,1.91.32,2.86.46a.68.68,0,0,1,.56.74v3.91c0,.52-.21.72-.74.82-.88.16-1.76.3-2.65.43-.39.06-.7.19-.76.64a.46.46,0,0,1-.1.24c-.51.67-.29,1.22.23,1.78s.87,1.06,1.31,1.59a.71.71,0,0,1,0,1,15.05,15.05,0,0,1-3,3c-.49.34-.66.34-1.14,0-.69-.54-1.38-1.08-2.06-1.63a.59.59,0,0,0-.76-.05,8.08,8.08,0,0,1-.8.35.81.81,0,0,0-.56.79,24.57,24.57,0,0,1-.34,2.56.9.9,0,0,1-1.06.81H26.44Z" fill="#7fbe26"/>
      <path id="Path_31" data-name="Path 31" d="M43.45,38.32a2.8,2.8,0,0,0,2.88,2.87,3,3,0,0,0,2.78-2.81,2.91,2.91,0,0,0-2.84-2.86,2.83,2.83,0,0,0-2.82,2.8m5.63,8.23a2,2,0,0,1-.33-.27c-.54-.63-1.07-1.28-1.59-1.93a1,1,0,0,0-.74-.34,1.36,1.36,0,0,0-1.41.78,17.361,17.361,0,0,1-1.23,1.49.48.48,0,0,1-.75.1c-.67-.44-1.37-.83-2.06-1.24-.33-.19-.47-.38-.27-.81.35-.76.63-1.57.91-2.36a.56.56,0,0,0,0-.4A1.59,1.59,0,0,0,40,40.45a8.24,8.24,0,0,1-1.69-.26.58.58,0,0,1-.53-.64c0-.83,0-1.67,0-2.5,0-.28.09-.44.38-.48.79-.12,1.58-.28,2.38-.37a.88.88,0,0,0,.73-.47.59.59,0,0,1,.11-.19c.49-.48.24-1,0-1.47a14.927,14.927,0,0,1-.72-1.93.56.56,0,0,1,.18-.49c.75-.48,1.53-.92,2.29-1.37a.43.43,0,0,1,.62.12c.55.65,1.1,1.29,1.64,1.94a1.3,1.3,0,0,0,1.8,0c.52-.64,1-1.26,1.56-1.9a.48.48,0,0,1,.72-.13c.73.44,1.46.87,2.2,1.28a.45.45,0,0,1,.24.65c-.31.79-.64,1.57-.92,2.36a.89.89,0,0,0,0,.6,1.59,1.59,0,0,0,1.77,1.08,9.2,9.2,0,0,1,1.59.29c.28,0,.36.22.36.5v2.59a.46.46,0,0,1-.41.53c-.81.13-1.62.24-2.43.38a.9.9,0,0,0-.51.31c-.61.91-.58.91-.13,1.91.26.59.48,1.19.68,1.8a.45.45,0,0,1-.14.41c-.83.51-1.68,1-2.53,1.5a.385.385,0,0,0-.18.06" fill="#7fbe26"/>
      <path id="Path_32" data-name="Path 32" d="M43.45,15.55a2.88,2.88,0,0,0,2.81,2.87,3,3,0,0,0,2.85-2.81,2.93,2.93,0,0,0-2.75-2.87,2.84,2.84,0,0,0-2.91,2.81m-1.78,3.51a2,2,0,0,0-1.15-1.32c-.79-.12-1.58-.26-2.37-.39-.32-.05-.43-.22-.42-.55V14.39a.58.58,0,0,1,.54-.67c.75-.11,1.5-.25,2.26-.33a.84.84,0,0,0,.7-.44c.48-.84.47-.84.09-1.74-.25-.61-.49-1.24-.69-1.88a.57.57,0,0,1,.24-.48A23.086,23.086,0,0,1,43.2,7.46a.56.56,0,0,1,.52.14c.52.59,1,1.2,1.51,1.82a1.3,1.3,0,0,0,2,0c.51-.62,1-1.23,1.54-1.86a.39.39,0,0,1,.6-.11c.74.44,1.49.88,2.23,1.3a.5.5,0,0,1,.27.72c-.34.79-.65,1.59-1,2.39a.67.67,0,0,0,0,.44,2,2,0,0,0,.24.42,1,1,0,0,0,1,.65q1.007.106,2,.31a.53.53,0,0,1,.53.61c0,.83,0,1.67,0,2.51,0,.3-.1.48-.4.52-.78.13-1.55.28-2.33.37a.86.86,0,0,0-.69.45c-.51.83-.5.82-.1,1.72.26.6.49,1.22.69,1.84a.57.57,0,0,1-.16.51c-.77.49-1.55.94-2.34,1.4a.46.46,0,0,1-.65-.14c-.52-.64-1-1.27-1.55-1.91a1,1,0,0,0-.82-.37A1.38,1.38,0,0,0,45,22c-.39.54-.86,1-1.29,1.55a.46.46,0,0,1-.66.09L40.9,22.37a.51.51,0,0,1-.25-.76c.33-.76.61-1.54.91-2.32l.08-.21" fill="#7fbe26"/>
    </g>
    <rect id="Rectangle_9" data-name="Rectangle 9" width="60" height="60" transform="translate(1860 285)" fill="none"/>
  </g>
</svg>
