<svg xmlns="http://www.w3.org/2000/svg" width="60" height="60" viewBox="0 0 60 60">
  <g id="Group_10" data-name="Group 10" transform="translate(-1936 -285)">
    <g id="section4-financial-icon9" transform="translate(1921.482 290.1)">
      <path id="Path_33" data-name="Path 33" d="M24,24.09a9.58,9.58,0,0,0,.13,3.1,16.66,16.66,0,0,0,.57,2.23,20,20,0,0,0,.85,2.22,14.87,14.87,0,0,0,1.82,3,6.46,6.46,0,0,0,1.24,1.21,8.86,8.86,0,0,0,0-2.77c-.28-1.3-.62-2.57-1-3.77a15.15,15.15,0,0,0-.69-1.7c-.15-.32-.29-.64-.42-1a5.13,5.13,0,0,0-2-2.3c-.14-.1-.29-.18-.44-.27m4.57,14.45a4,4,0,0,1-.58,0,2.72,2.72,0,0,1-1.61-1,17.24,17.24,0,0,1-2.65-4.1v-.07a28.31,28.31,0,0,1-1.3-3.16,16.71,16.71,0,0,1-.55-2.38l-.08-.44c-.1-.55-.17-1.1-.24-1.64l-.1-.77v-.09a7.24,7.24,0,0,1,.35-2.4,1.94,1.94,0,0,1,1.77-1.28,1.72,1.72,0,0,1,.63.12,7.85,7.85,0,0,1,3,2.28,12.81,12.81,0,0,1,2.52,4.68l.14.43c.17.49.34,1,.49,1.51a18.9,18.9,0,0,1,.77,4.23,6.37,6.37,0,0,1-.4,2.59,2.23,2.23,0,0,1-2.23,1.52" fill="#7fbe26"/>
      <path id="Path_34" data-name="Path 34" d="M56.4,33.3a10.149,10.149,0,0,0-1.11.66,9.72,9.72,0,0,0-3,4c-.29.63-.56,1.29-.83,1.93S51,41,50.73,41.59a4.79,4.79,0,0,0-.37,2.78,16,16,0,0,0,4.18-4.83A17.491,17.491,0,0,0,56,36.38a9.46,9.46,0,0,0,.63-2.92v-.29l-.25.13M50.11,46.89a2,2,0,0,1-2-1.6c-.06-.26-.11-.52-.14-.74v-.34a15.52,15.52,0,0,1,.61-3.44,23.35,23.35,0,0,1,2.08-4.71l.36-.61A10.41,10.41,0,0,1,53,32.66a13.079,13.079,0,0,1,1.7-1.2l.37-.24c.29-.18.6-.34.89-.5l.49-.26a1.88,1.88,0,0,1,.91-.26,1.64,1.64,0,0,1,1.52,1.13,5,5,0,0,1,.25,2.36,16.07,16.07,0,0,1-1.49,5A20.35,20.35,0,0,1,55,43.23a25.839,25.839,0,0,1-2.23,2.44,4.22,4.22,0,0,1-2.28,1.19,2.19,2.19,0,0,1-.36,0" fill="#7fbe26"/>
      <path id="Path_35" data-name="Path 35" d="M33.14,42a8.89,8.89,0,0,0,2.76.53h.45a16.06,16.06,0,0,0,4.93-1,12.7,12.7,0,0,0,3.44-1.94,7.281,7.281,0,0,0,.58-.54,7.56,7.56,0,0,0-2-.31h-.12a16,16,0,0,0-2.2.16c-1,.15-2,.35-3,.59a10.72,10.72,0,0,0-1.34.47l-.39.16A10.51,10.51,0,0,0,33.12,42h0m2.21,3-1-.19a12.2,12.2,0,0,1-2.53-.64,2.24,2.24,0,0,1-1.42-1.45,2.47,2.47,0,0,1,.62-2.1,7.17,7.17,0,0,1,2.61-1.93c.71-.34,1.37-.64,2-.9a13.809,13.809,0,0,1,1.57-.53c.79-.21,1.5-.4,2.24-.52a22.31,22.31,0,0,1,3.78-.35h.67a7.82,7.82,0,0,1,3.37.8,2,2,0,0,1,1.13,1.35,1.75,1.75,0,0,1-.51,1.53,16.17,16.17,0,0,1-1.77,1.65l-.35.29a8.19,8.19,0,0,1-2.45,1.48,14.78,14.78,0,0,1-2.29.62c-.93.18-1.87.33-2.79.48l-1.21.2-1.6.28Z" fill="#7fbe26"/>
      <path id="Path_36" data-name="Path 36" d="M45.58,30.12l.78-.1c.63-.08,1.28-.16,1.9-.29a20,20,0,0,0,3-.85,21.77,21.77,0,0,0,2.91-1.42A5.27,5.27,0,0,0,56,26h0l-.61-.15a6.73,6.73,0,0,0-1.27-.24H53.8a10.92,10.92,0,0,0-3.57.81c-.39.14-.78.3-1.17.46s-.66.27-1,.39a11.07,11.07,0,0,0-3.07,1.7,12.642,12.642,0,0,0-1.09,1l1.74.23M45,32.63a6.82,6.82,0,0,1-2.49-.5,2.44,2.44,0,0,1-1.1-1,1.24,1.24,0,0,1-.14-.44,2.92,2.92,0,0,1,.94-2.61,12.73,12.73,0,0,1,3-2.26,19.07,19.07,0,0,1,3.94-1.73,14.55,14.55,0,0,1,4.28-.81h.35a12.68,12.68,0,0,1,2.42.33l.34.06.65.15c.24.06.49.13.73.17a1.22,1.22,0,0,1,.81.54,1.37,1.37,0,0,1,.25,1,3.32,3.32,0,0,1-.31.92A6.89,6.89,0,0,1,56,29.14l-.09.05a23.56,23.56,0,0,1-2.52,1.37,20.37,20.37,0,0,1-2.64,1,27,27,0,0,1-5.16,1h-.62" fill="#7fbe26"/>
      <path id="Path_37" data-name="Path 37" d="M63.58,26.61a4.679,4.679,0,0,0-.18.48l-.09.28c-.17.53-.34,1.06-.47,1.6a12.33,12.33,0,0,0-.32,2.7V32a18.08,18.08,0,0,0,.21,3.84A7.65,7.65,0,0,0,64,39.13c.25-.54.51-1.11.74-1.7A13.7,13.7,0,0,0,65.37,33a2.078,2.078,0,0,0-.06-.58,14.8,14.8,0,0,0-.23-2,10.7,10.7,0,0,0-.86-2.73,12.931,12.931,0,0,0-.64-1.13m.31,15.29a2.55,2.55,0,0,1-2.3-1.53,11.37,11.37,0,0,1-.62-2c-.23-1-.42-2-.61-3l-.1-.52A13.16,13.16,0,0,1,60,33.09a5.66,5.66,0,0,1,.1-1.31v-.41c.12-.93.25-1.86.37-2.8v-.14a9.15,9.15,0,0,1,1.31-3.83,2.16,2.16,0,0,1,1.86-1.08,3,3,0,0,1,.42,0,1.82,1.82,0,0,1,1.24,1l.24.4c.33.56.67,1.13,1,1.73a10.21,10.21,0,0,1,.94,3.12l.3,2.65-.1.87c-.07.63-.14,1.27-.24,1.91-.15,1-.33,2.07-.58,3.11v.24a6.21,6.21,0,0,1-.86,2.2,2.59,2.59,0,0,1-2.13,1.15" fill="#7fbe26"/>
      <path id="Path_38" data-name="Path 38" d="M39.35,20.17l-.13.12-.34.33a10.131,10.131,0,0,0-.79.82,4.81,4.81,0,0,0-1,1.87L37,23.6c-.19.69-.37,1.38-.54,2.08-.07.29-.13.59-.19.89s-.09.51-.15.77a13.47,13.47,0,0,0-.43,3,5.35,5.35,0,0,0,.41,1.91h0a7.27,7.27,0,0,0,1.51-2,14.93,14.93,0,0,0,1.67-4.87,4.553,4.553,0,0,1,.13-.81c.09-.6.19-1.23.24-1.84a7.77,7.77,0,0,0-.25-2.68l-.1.08M36,35.03a2.27,2.27,0,0,1-2-1.62,8.47,8.47,0,0,1-.5-3.53,18.9,18.9,0,0,1,.44-4,19.3,19.3,0,0,1,1.24-3.95,9.69,9.69,0,0,1,2.11-3l.53-.55c.26-.28.53-.56.81-.83a1.72,1.72,0,0,1,1.16-.57,1.75,1.75,0,0,1,1.25.65,3.17,3.17,0,0,1,.74,1.72v.1c.14.67.26,1.36.36,2l.12.68a1.48,1.48,0,0,1,0,.42,4.574,4.574,0,0,1-.1.73c-.08.62-.16,1.25-.29,1.88-.19.92-.44,1.9-.78,3.09a16.86,16.86,0,0,1-2,4.54,6.69,6.69,0,0,1-1.55,1.75,2.51,2.51,0,0,1-1.49.56" fill="#7fbe26"/>
      <path id="Path_39" data-name="Path 39" d="M45.26,7a9.09,9.09,0,0,0-.92,3.19,14.82,14.82,0,0,0-.12,3.34,2.381,2.381,0,0,0,.07.7,19.208,19.208,0,0,0,.25,2,15.21,15.21,0,0,0,.74,2.35,5.81,5.81,0,0,0,.59,1.05h0a8.41,8.41,0,0,0,.93-3c.08-.79.13-1.57.17-2.2l.05-.6a16.42,16.42,0,0,0-.33-4A6.84,6.84,0,0,0,45.26,7m.56,15.38a2.65,2.65,0,0,1-1-.23,2.44,2.44,0,0,1-1.25-1.26,16.5,16.5,0,0,1-.57-1.6c-.21-.67-.44-1.45-.62-2.23a22.577,22.577,0,0,1-.39-2.35c-.07-.57-.11-1.13-.14-1.55v-.35a21.25,21.25,0,0,1,.42-4.33A10.44,10.44,0,0,1,43,5.87a6.65,6.65,0,0,1,1-1.41,1.58,1.58,0,0,1,1.19-.56,1.81,1.81,0,0,1,1.06.36,4,4,0,0,1,1.07,1.22l.09.14a12.39,12.39,0,0,1,1.45,3,12.47,12.47,0,0,1,.61,5.07c-.09,1-.19,2.09-.32,3.2a10.58,10.58,0,0,1-1.24,4.18,2.38,2.38,0,0,1-2,1.3" fill="#7fbe26"/>
      <path id="Path_40" data-name="Path 40" d="M35.36,8.35a9.64,9.64,0,0,0-1.69,1.85,14.75,14.75,0,0,0-1.55,2.91c-.31.79-.58,1.57-.8,2.31a9.15,9.15,0,0,0-.45,3.46v1A5.74,5.74,0,0,0,33,17.71c.49-.85.92-1.76,1.33-2.64l.17-.36a15.37,15.37,0,0,0,.94-2.59,7.52,7.52,0,0,0,.17-2.65,5.22,5.22,0,0,0-.25-1v-.1M30.7,22.63a2.23,2.23,0,0,1-2.09-1.54,7.8,7.8,0,0,1-.08-4.19c.06-.25.11-.51.15-.76a10.423,10.423,0,0,1,.23-1.06,21.18,21.18,0,0,1,1.62-4.26A19.17,19.17,0,0,1,33.08,7a5.67,5.67,0,0,1,1.81-1.38,2,2,0,0,1,.86-.2,1.9,1.9,0,0,1,1.9,1.47c.1.5.18,1,.25,1.6s.08.83.1,1.2v.43a13,13,0,0,1-.51,3.6A20.6,20.6,0,0,1,34.6,19.5a19.43,19.43,0,0,1-1.41,1.86,4.22,4.22,0,0,1-1.88,1.18,2.1,2.1,0,0,1-.61.09" fill="#7fbe26"/>
      <path id="Path_41" data-name="Path 41" d="M53.16,15.56a12.2,12.2,0,0,0,1.09,1,14.54,14.54,0,0,0,3.2,1.71,18.21,18.21,0,0,0,4.07,1.14h.09a10.29,10.29,0,0,0,1.71.19,3.69,3.69,0,0,0,.69-.06,9.32,9.32,0,0,0,1-.22h0a8.19,8.19,0,0,0-1-1.08A10.41,10.41,0,0,0,61.66,17l-.69-.3a25.85,25.85,0,0,0-3.11-1.18,8.53,8.53,0,0,0-2.44-.43h-.49a7.12,7.12,0,0,0-1.91.36l.14.14M63.57,22a16.21,16.21,0,0,1-3.07-.38,23.18,23.18,0,0,1-4.24-1.28,16.38,16.38,0,0,1-4.95-3,5,5,0,0,1-1-1.38,1.79,1.79,0,0,1,1.15-2.7,11.05,11.05,0,0,1,2.81-.5v-.12l1.29.11c.65.05,1.29.11,1.93.18a12.16,12.16,0,0,1,3.68,1.09A28.428,28.428,0,0,1,64.1,15.6l.42.24a13.459,13.459,0,0,1,1.15.76l.48.33a4,4,0,0,1,1.45,1.94,2.18,2.18,0,0,1-1.16,2.66,4.67,4.67,0,0,1-2,.42h-.85" fill="#7fbe26"/>
    </g>
    <rect id="Rectangle_10" data-name="Rectangle 10" width="60" height="60" transform="translate(1936 285)" fill="none"/>
  </g>
</svg>
