<svg xmlns="http://www.w3.org/2000/svg" width="60" height="60" viewBox="0 0 60 60">
  <g id="Group_3" data-name="Group 3" transform="translate(-1392 -285)">
    <g id="section4-financial-icon2" transform="translate(1390.025 272.07)">
      <path id="Path_10" data-name="Path 10" d="M35.45,53.22l-2.36,2.36-5,5A5.9,5.9,0,0,1,25.66,62a15,15,0,0,1-2.18.51,10.32,10.32,0,0,1-2.72.07,8.92,8.92,0,0,1-6.64-3.71,10.65,10.65,0,0,1-1.78-3.66A10.33,10.33,0,0,1,12.28,50a6.73,6.73,0,0,1,1.21-2.68c.46-.56,1-1.07,1.52-1.59l7.31-7.31a16.677,16.677,0,0,1,1.4-1.39,7.67,7.67,0,0,1,1.41-.9,11.47,11.47,0,0,1,4-1.22,6.92,6.92,0,0,1,2.08.16,10.35,10.35,0,0,1,3.18,1.14,4.29,4.29,0,0,1,1.4,1.21,2.44,2.44,0,0,1,.3,2.37,6.39,6.39,0,0,1-.81,1.47,1.82,1.82,0,0,1-2.13.57c-.51-.15-1-.44-1.49-.62A4.93,4.93,0,0,0,29.32,41a3.87,3.87,0,0,0-1.73.86,33.07,33.07,0,0,0-3.23,2.8c-1.1,1.06-2.23,2.11-3.31,3.19a14.54,14.54,0,0,0-2.76,3.62,3.77,3.77,0,0,0-.46,1.67,1.93,1.93,0,0,0,.51,1.34,5.89,5.89,0,0,0,3.09,2,3,3,0,0,0,2.73-.56A28.55,28.55,0,0,0,27.08,53l.84-.94a.24.24,0,0,1,.23,0,11.36,11.36,0,0,0,2.64.94,4.74,4.74,0,0,0,.84.13c1,0,2,0,3,.05a4.463,4.463,0,0,0,.82-.05v.06" fill="#7fbe26"/>
      <path id="Path_11" data-name="Path 11" d="M28.16,32.32l1-1L35.53,25a6.22,6.22,0,0,1,2.29-1.37,10.9,10.9,0,0,1,3.29-.68,11.15,11.15,0,0,1,3.1.25,9,9,0,0,1,3.33,1.49,10.94,10.94,0,0,1,4,6.53,10.37,10.37,0,0,1,.06,3.29,9.31,9.31,0,0,1-.81,2.74,5.35,5.35,0,0,1-1.09,1.49L44.37,44c-1.41,1.41-2.82,2.82-4.21,4.25a7,7,0,0,1-2.51,1.53,15.62,15.62,0,0,1-1.79.59,7.17,7.17,0,0,1-3.29.11,9.84,9.84,0,0,1-3.48-1.26,5.11,5.11,0,0,1-1.15-1,2.5,2.5,0,0,1-.35-2.76,6.35,6.35,0,0,1,.7-1.21,1.78,1.78,0,0,1,2-.64,5.68,5.68,0,0,1,1.29.47,4.69,4.69,0,0,0,1.67.47A3.62,3.62,0,0,0,36,43.77a40.28,40.28,0,0,0,3.48-3c1-1,2.06-1.95,3.06-2.95a16,16,0,0,0,2.67-3.35,4.67,4.67,0,0,0,.63-1.74,1.85,1.85,0,0,0-.38-1.47A5.64,5.64,0,0,0,41.84,29a3,3,0,0,0-2.55.78,38,38,0,0,0-3.53,3.65.21.21,0,0,1-.32.05,8.41,8.41,0,0,0-4.24-1.2h-3" fill="#7fbe26"/>
    </g>
    <rect id="Rectangle_3" data-name="Rectangle 3" width="60" height="60" transform="translate(1392 285)" fill="none"/>
  </g>
</svg>
