<svg xmlns="http://www.w3.org/2000/svg" width="60" height="60" viewBox="0 0 60 60">
  <g id="Group_5" data-name="Group 5" transform="translate(-1544 -285)">
    <g id="section4-financial-icon4" transform="translate(1548.268 286.287)">
      <path id="Path_17" data-name="Path 17" d="M37.72,35.81a1.635,1.635,0,1,0,1.62-1.63,1.62,1.62,0,0,0-1.62,1.64m-1.7,0a1.61,1.61,0,0,0-1.63-1.66,1.65,1.65,0,0,0,0,3.29A1.61,1.61,0,0,0,36,35.83m-5,0a1.65,1.65,0,0,0-1.67-1.65,1.6,1.6,0,0,0-1.64,1.66,1.58,1.58,0,0,0,1.64,1.62A1.63,1.63,0,0,0,31,35.82m3.44-10.47c.58.06,1.49.14,2.4.28a10.15,10.15,0,0,1,1.51.39,14.529,14.529,0,0,1,1.44.52c.47.21.92.46,1.36.71a10.1,10.1,0,0,1,2,1.44,8.52,8.52,0,0,1,1.56,1.78,11.77,11.77,0,0,1,.86,1.45,10.91,10.91,0,0,1,.53,1.52,7.69,7.69,0,0,1,.27,2.94,9.34,9.34,0,0,1-.25,1.48A7.909,7.909,0,0,1,45.78,39a7.81,7.81,0,0,1-.52,1.09c-.26.43-.56.83-.83,1.24a.58.58,0,0,0-.08.31,7.2,7.2,0,0,0,.32,2.06c.13.4.23.82.37,1.23s.26.66.39,1,.24.59.37.88.27.55.4.83h0a.508.508,0,0,0,.08.33q-.139.022-.28.03c-.33-.06-.66-.14-1-.21l-1.79-.44L41.87,47c-.38-.12-.75-.25-1.13-.39s-.66-.23-1-.37-.81-.35-1.21-.55a.85.85,0,0,0-.72-.13,4.89,4.89,0,0,1-1.14.22c-.77.08-1.54.17-2.31.2a11.42,11.42,0,0,1-2.86-.2c-.6-.12-1.19-.26-1.78-.43a12.43,12.43,0,0,1-1.44-.53A14.16,14.16,0,0,1,27,44.08a10,10,0,0,1-2.22-1.72,8.53,8.53,0,0,1-1.45-1.83,11.86,11.86,0,0,1-.87-1.7A8.26,8.26,0,0,1,21.88,35a12.44,12.44,0,0,1,.22-1.49,8.32,8.32,0,0,1,.39-1.16A9.15,9.15,0,0,1,23,31.23,14.27,14.27,0,0,1,23.85,30a10.58,10.58,0,0,1,2.33-2.2,13.171,13.171,0,0,1,1.45-.8,10.91,10.91,0,0,1,1.55-.72c.6-.21,1.24-.35,1.86-.52a14.75,14.75,0,0,1,3.43-.37" fill="#7fbe26"/>
      <path id="Path_18" data-name="Path 18" d="M24.57,12.22c-1,.09-2,.14-2.94.29a18.73,18.73,0,0,0-2.21.54,11.47,11.47,0,0,0-1.13.37c-.41.17-.81.36-1.2.56a9.42,9.42,0,0,0-1.16.64,13.85,13.85,0,0,0-1.66,1.18,15.5,15.5,0,0,0-1.66,1.68,10,10,0,0,0-1,1.53,10.09,10.09,0,0,0-.73,1.52,9.73,9.73,0,0,0-.53,4,8.92,8.92,0,0,0,.38,2.06,8.6,8.6,0,0,0,.85,1.88A13.91,13.91,0,0,0,13.59,31a.47.47,0,0,1,.15.43c-.14.69-.27,1.39-.41,2.08-.07.32-.13.65-.22,1s-.26.89-.39,1.33c-.07.24-.14.48-.22.72a.215.215,0,0,1-.05.16.83.83,0,0,0,0,.15,1,1,0,0,0,.17,0l1.12-.4,1-.36.87-.36,1.16-.55c.46-.23.92-.48,1.37-.72l.3-.18a.17.17,0,0,1,.14,0,.2.2,0,0,1,.06.15,9.94,9.94,0,0,0,.06,2.83.59.59,0,0,0,0,.13.51.51,0,0,1-.32.68c-.37.15-.71.36-1.06.53s-.66.29-1,.42l-1,.37-1.12.39-.59.2-1.85.52L10,41l-2.36.56-.61.1c-.12,0-.19,0-.15-.14a2.87,2.87,0,0,1,.18-.4L7.62,40c.13-.29.25-.59.37-.88l.4-.94c.13-.34.25-.67.37-1s.28-.83.41-1.24c.06-.2.13-.41.17-.61.12-.59.25-1.19.35-1.78a8.024,8.024,0,0,1,.08-.83,1.12,1.12,0,0,0-.27-.92,10.76,10.76,0,0,1-1.24-1.93,14.19,14.19,0,0,1-.77-1.79,12.84,12.84,0,0,1-.69-5.66,10.91,10.91,0,0,1,.29-1.71A14.39,14.39,0,0,1,7.65,19a11.83,11.83,0,0,1,.67-1.5,15,15,0,0,1,1-1.52,13.28,13.28,0,0,1,2.46-2.67A19.64,19.64,0,0,1,13.55,12a14.925,14.925,0,0,1,1.73-1c.37-.2.76-.36,1.15-.53s.91-.38,1.37-.54A12,12,0,0,1,19,9.5c.57-.15,1.13-.29,1.71-.4s1-.16,1.56-.23a17,17,0,0,1,3.42-.12c.81.05,1.62.16,2.42.28.64.11,1.28.27,1.92.43.42.1.84.22,1.25.36a9.425,9.425,0,0,1,1,.4c.3.14.56.22.83.35s.73.34,1.09.53.79.45,1.17.7,1,.67,1.46,1a12.15,12.15,0,0,1,2.06,1.93c.48.56.93,1.15,1.35,1.75A15.679,15.679,0,0,1,41.11,18a13.169,13.169,0,0,1,.52,1.28A10.9,10.9,0,0,1,42,20.54a11.35,11.35,0,0,1,.36,2.53q0,.39,0,.78a.83.83,0,0,1-.06.21L42.13,24c-.25-.12-.5-.25-.76-.36l-1-.43a4.089,4.089,0,0,0-.49-.18l-.72-.2c-.28-.08-.33-.15-.37-.43a8.1,8.1,0,0,0-.42-1.68c-.13-.32-.23-.65-.37-1a6.18,6.18,0,0,0-.48-.92,16.61,16.61,0,0,0-1-1.45,10.45,10.45,0,0,0-2.07-2c-.6-.42-1.21-.83-1.84-1.19a11.2,11.2,0,0,0-1.49-.69c-.61-.23-1.22-.44-1.84-.63a15.34,15.34,0,0,0-4.67-.62Z" fill="#7fbe26"/>
    </g>
    <rect id="Rectangle_5" data-name="Rectangle 5" width="60" height="60" transform="translate(1544 285)" fill="none"/>
  </g>
</svg>
