<svg xmlns="http://www.w3.org/2000/svg" width="60" height="60" viewBox="0 0 60 60">
  <g id="Group_6" data-name="Group 6" transform="translate(-1632 -285)">
    <g id="section4-financial-icon5" transform="translate(1636.812 287.63)">
      <path id="Path_19" data-name="Path 19" d="M11.57,45.8a5,5,0,0,1-1.89-.39,15.46,15.46,0,0,1-2.4-1.32l-.54-.34a6.33,6.33,0,0,0-1.65-.81H4.75a.58.58,0,0,1-.56-.61q0-.645,0-1.29a.59.59,0,0,1,.16-.42.58.58,0,0,1,.43-.17h.08a5.25,5.25,0,0,1,1.67.4,13.44,13.44,0,0,1,2.33,1.28l.57.36a7.41,7.41,0,0,0,1.59.8,2.24,2.24,0,0,0,.57.08,1.81,1.81,0,0,0,.87-.22c.6-.33,1.21-.7,1.8-1.06l.6-.36a10.23,10.23,0,0,1,2.28-1.08,4.5,4.5,0,0,1,1.3-.19,4.72,4.72,0,0,1,1.59.28A12.89,12.89,0,0,1,22.59,42l.54.34a15.221,15.221,0,0,0,1.46.78,2,2,0,0,0,.84.2A2.3,2.3,0,0,0,26.55,43c.55-.31,1.11-.65,1.65-1l.72-.44a8.63,8.63,0,0,1,2.49-1.09,4.5,4.5,0,0,1,1-.1,5,5,0,0,1,1.63.29A12.56,12.56,0,0,1,36.45,42c.2.13.4.26.61.38a14.561,14.561,0,0,0,1.53.81,1.63,1.63,0,0,0,.74.17,1.81,1.81,0,0,0,.88-.23c.68-.36,1.36-.78,2-1.18l.34-.2a9.23,9.23,0,0,1,2.06-1,7.429,7.429,0,0,1,1-.21l.37-.06h.13a.57.57,0,0,1,.42.17.6.6,0,0,1,.15.48v1h0a1.93,1.93,0,0,0,0,.24.62.62,0,0,1-.52.56,3.48,3.48,0,0,0-1.62.61l-1.06.65c-.41.26-.81.51-1.23.75a6.24,6.24,0,0,1-2.38.87h-.55a5.49,5.49,0,0,1-2.73-.8c-.54-.31-1.08-.64-1.6-1-.32-.19-.63-.39-.95-.57a3.82,3.82,0,0,0-1.37-.57h-.29a2.54,2.54,0,0,0-1.29.41c-.48.27-.95.56-1.42.85s-.73.45-1.1.66a7.2,7.2,0,0,1-2.18.91,4.595,4.595,0,0,1-2.56-.19,13,13,0,0,1-2.64-1.38l-.46-.29A7.83,7.83,0,0,0,19,43a2.15,2.15,0,0,0-.55-.08,1.75,1.75,0,0,0-.86.22c-.74.4-1.47.85-2.18,1.28l-.21.13a9.37,9.37,0,0,1-2.38,1.12,4.53,4.53,0,0,1-1.21.17" fill="#7fbe26"/>
      <path id="Path_20" data-name="Path 20" d="M39.33,37.91a4.91,4.91,0,0,1-1.62-.29,13.09,13.09,0,0,1-2.62-1.39L34.65,36a7.85,7.85,0,0,0-1.71-.87,2.09,2.09,0,0,0-.59-.1,1.93,1.93,0,0,0-.89.23c-.67.37-1.35.78-2,1.17l-.42.26a10.31,10.31,0,0,1-2.31,1.09,4.75,4.75,0,0,1-2.59,0,11.38,11.38,0,0,1-2.71-1.33L21,36.14c-.66-.4-1.25-.72-1.79-1a1.9,1.9,0,0,0-.76-.17,2.16,2.16,0,0,0-1.1.32c-.53.3-1.06.62-1.58.94l-.79.48a9.08,9.08,0,0,1-2.1,1,4.59,4.59,0,0,1-1.32.2A5.1,5.1,0,0,1,10,37.63a13.21,13.21,0,0,1-2.63-1.4l-.48-.31a6.46,6.46,0,0,0-1.75-.86,1.45,1.45,0,0,0-.3-.06.61.61,0,0,1-.6-.64V33.15a.61.61,0,0,1,.17-.46.6.6,0,0,1,.44-.17h0a4.89,4.89,0,0,1,2.13.6c.51.28,1,.58,1.5.88l1.27.74a9,9,0,0,0,1.33.61,1.29,1.29,0,0,0,.51.1,1.85,1.85,0,0,0,.88-.24c.8-.44,1.59-.92,2.36-1.4a9.78,9.78,0,0,1,2.42-1.13,4.79,4.79,0,0,1,1.18-.16,4.34,4.34,0,0,1,.8.08A9.45,9.45,0,0,1,22.41,34l.11.06c.57.35,1.17.7,1.76,1a2.38,2.38,0,0,0,1.15.32,2.56,2.56,0,0,0,1.3-.39l1.44-.87,1.07-.65a7.08,7.08,0,0,1,2.3-.93,4.58,4.58,0,0,1,.83-.08A5,5,0,0,1,34,32.8a13.34,13.34,0,0,1,2.59,1.38l.46.29a7.37,7.37,0,0,0,1.72.88,2,2,0,0,0,.58.09,1.83,1.83,0,0,0,.87-.23c.68-.37,1.36-.78,2-1.18l.37-.23A8.7,8.7,0,0,1,45,32.71a4.63,4.63,0,0,1,.8-.14h.4a.54.54,0,0,1,.41.18.63.63,0,0,1,.15.48q0,.2,0,.39v.61h0v.27a.61.61,0,0,1-.54.55,3.5,3.5,0,0,0-1.55.58l-1.21.75-1.1.67a6.31,6.31,0,0,1-2.14.84,4.25,4.25,0,0,1-.8.07" fill="#7fbe26"/>
      <path id="Path_21" data-name="Path 21" d="M39.33,30a4.7,4.7,0,0,1-1.62-.29,11.77,11.77,0,0,1-2.39-1.25l-.51-.31c-.57-.34-1.14-.65-1.69-.91a1.69,1.69,0,0,0-.75-.18,1.87,1.87,0,0,0-.9.24c-.61.33-1.2.69-1.78,1l-.64.38a10.38,10.38,0,0,1-2.25,1.07,4.41,4.41,0,0,1-1.34.21,5.23,5.23,0,0,1-1.9-.38,13.2,13.2,0,0,1-2.2-1.18l-.63-.38a16.179,16.179,0,0,0-1.54-.81,1.82,1.82,0,0,0-.75-.17,2.22,2.22,0,0,0-1.07.31c-.58.32-1.16.68-1.72,1l-.67.41a8.7,8.7,0,0,1-2.19,1,4.55,4.55,0,0,1-2.5,0A11.51,11.51,0,0,1,7.4,28.39L7,28.11a7.76,7.76,0,0,0-1.6-.86,3.74,3.74,0,0,0-.59-.13.61.61,0,0,1-.57-.65V25.26a.57.57,0,0,1,.17-.45.6.6,0,0,1,.45-.17,4.73,4.73,0,0,1,2.19.6c.52.28,1,.59,1.53.89s.81.49,1.22.73a10.57,10.57,0,0,0,1.31.6,1.39,1.39,0,0,0,.53.1,1.79,1.79,0,0,0,.88-.25c.67-.36,1.33-.76,2-1.15l.39-.24A9.2,9.2,0,0,1,17.3,24.8a4.57,4.57,0,0,1,1.21-.16,4.83,4.83,0,0,1,1.25.17,10.9,10.9,0,0,1,2.7,1.31l.43.26a20.893,20.893,0,0,0,1.89,1,1.78,1.78,0,0,0,.74.17,1.9,1.9,0,0,0,.9-.24c.68-.36,1.37-.78,2-1.18l.39-.23a10,10,0,0,1,2.32-1.1,4.81,4.81,0,0,1,1.3-.19,5,5,0,0,1,1.31.19,11.25,11.25,0,0,1,2.75,1.38l.45.28c.47.29,1,.57,1.47.83a2.15,2.15,0,0,0,1,.25,2.24,2.24,0,0,0,1.11-.32c.56-.32,1.12-.66,1.67-1l.68-.41a7.66,7.66,0,0,1,2.19-1,5.29,5.29,0,0,1,.78-.13h.39a.57.57,0,0,1,.42.17.63.63,0,0,1,.15.48v1h0a2.261,2.261,0,0,1,0,.26.6.6,0,0,1-.51.56,3.76,3.76,0,0,0-1.77.7l-1,.58-1.17.73a6.5,6.5,0,0,1-2.16.83,4.11,4.11,0,0,1-.78.07" fill="#7fbe26"/>
      <path id="Path_22" data-name="Path 22" d="M39.33,22.14a5,5,0,0,1-1.62-.29,12.29,12.29,0,0,1-2.39-1.25l-.51-.32c-.57-.34-1.14-.65-1.69-.91a1.68,1.68,0,0,0-.75-.17,1.87,1.87,0,0,0-.9.24c-.61.32-1.2.68-1.78,1l-.64.38A10.41,10.41,0,0,1,26.8,21.9a4.73,4.73,0,0,1-1.34.2,5.23,5.23,0,0,1-1.9-.38,13.2,13.2,0,0,1-2.2-1.18l-.63-.38a14.079,14.079,0,0,0-1.54-.8,1.68,1.68,0,0,0-.75-.17,2.2,2.2,0,0,0-1.07.3c-.58.33-1.16.68-1.72,1L15,21a8.7,8.7,0,0,1-2.19,1,4.55,4.55,0,0,1-2.5,0A11.19,11.19,0,0,1,7.4,20.5L7,20.22a7.26,7.26,0,0,0-1.6-.85,3.67,3.67,0,0,0-.59-.14.61.61,0,0,1-.57-.65v-1.2a.59.59,0,0,1,.62-.63,4.73,4.73,0,0,1,2.19.6c.52.29,1,.6,1.53.89s.81.49,1.22.73a10.57,10.57,0,0,0,1.31.6,1.39,1.39,0,0,0,.53.1,1.88,1.88,0,0,0,.88-.24c.67-.36,1.33-.77,2-1.16l.39-.24a9.53,9.53,0,0,1,2.39-1.12,5,5,0,0,1,1.21-.16,4.83,4.83,0,0,1,1.25.17,11.26,11.26,0,0,1,2.7,1.31l.43.26a21.149,21.149,0,0,0,1.89,1,1.63,1.63,0,0,0,.74.17,2,2,0,0,0,.9-.23c.68-.37,1.37-.78,2-1.18l.39-.23a9.59,9.59,0,0,1,2.32-1.1,4.45,4.45,0,0,1,1.3-.19,4.61,4.61,0,0,1,1.31.19,10.88,10.88,0,0,1,2.75,1.37l.45.28c.47.29,1,.57,1.47.83a2,2,0,0,0,1,.25,2.22,2.22,0,0,0,1.11-.31c.56-.32,1.12-.67,1.67-1l.68-.42a8.25,8.25,0,0,1,2.19-1c.26-.06.52-.09.78-.13h.39a.57.57,0,0,1,.42.17.63.63,0,0,1,.15.48v1h0a2.17,2.17,0,0,1,0,.26.59.59,0,0,1-.51.56,3.76,3.76,0,0,0-1.77.7l-1,.59-1.17.72a6.76,6.76,0,0,1-2.16.84,5.14,5.14,0,0,1-.78.07" fill="#7fbe26"/>
      <path id="Path_23" data-name="Path 23" d="M39.33,14.73a4.7,4.7,0,0,1-1.62-.29,11.77,11.77,0,0,1-2.39-1.25l-.51-.31c-.57-.34-1.14-.65-1.69-.91a1.69,1.69,0,0,0-.75-.18,1.87,1.87,0,0,0-.9.24c-.61.33-1.2.69-1.78,1l-.64.38a10.38,10.38,0,0,1-2.25,1.07,4.41,4.41,0,0,1-1.34.21,5.23,5.23,0,0,1-1.9-.38,13.2,13.2,0,0,1-2.2-1.18l-.63-.38A16.18,16.18,0,0,0,19.19,12a1.82,1.82,0,0,0-.75-.17,2.22,2.22,0,0,0-1.07.31c-.58.32-1.16.68-1.72,1l-.67.41a8.7,8.7,0,0,1-2.19,1,4.55,4.55,0,0,1-2.5,0A11.51,11.51,0,0,1,7.4,13.1L7,12.82A7.76,7.76,0,0,0,5.35,12a3.74,3.74,0,0,0-.59-.13.61.61,0,0,1-.57-.65V10.01a.57.57,0,0,1,.17-.45.6.6,0,0,1,.45-.17A4.73,4.73,0,0,1,7,10c.52.28,1,.59,1.53.89s.81.49,1.22.73a10.57,10.57,0,0,0,1.31.6,1.39,1.39,0,0,0,.53.1,1.79,1.79,0,0,0,.88-.25c.67-.36,1.33-.76,2-1.15l.39-.24a9.2,9.2,0,0,1,2.39-1.12,4.57,4.57,0,0,1,1.21-.16,4.83,4.83,0,0,1,1.25.17,10.9,10.9,0,0,1,2.7,1.31l.43.26a20.893,20.893,0,0,0,1.89,1,1.78,1.78,0,0,0,.74.17,1.9,1.9,0,0,0,.9-.24c.68-.36,1.37-.78,2-1.18l.39-.23a10,10,0,0,1,2.32-1.1,4.81,4.81,0,0,1,1.3-.19,5,5,0,0,1,1.31.19,11.25,11.25,0,0,1,2.75,1.38l.45.28c.47.29,1,.57,1.47.83a2.15,2.15,0,0,0,1,.25,2.24,2.24,0,0,0,1.11-.32c.56-.32,1.12-.66,1.67-1l.68-.41a7.66,7.66,0,0,1,2.19-1,5.29,5.29,0,0,1,.78-.13h.39a.57.57,0,0,1,.42.17.63.63,0,0,1,.15.48V11h0a2.261,2.261,0,0,1,0,.26.6.6,0,0,1-.51.56,3.76,3.76,0,0,0-1.77.7l-1,.58-1.17.73a6.5,6.5,0,0,1-2.16.83,4.11,4.11,0,0,1-.78.07" fill="#7fbe26"/>
    </g>
    <rect id="Rectangle_6" data-name="Rectangle 6" width="60" height="60" transform="translate(1632 285)" fill="none"/>
  </g>
</svg>
