<svg xmlns="http://www.w3.org/2000/svg" width="60" height="60" viewBox="0 0 60 60">
  <g id="Group_1" data-name="Group 1" transform="translate(-1235 -285)">
    <g id="section4-financial-icon1" transform="translate(1232.25 274.81)">
      <path id="Path_1" data-name="Path 1" d="M32.51,32.48a1.47,1.47,0,0,1,.16-1.77,3.63,3.63,0,0,1,1.29-.9c1-.42,2-.8,3-1.19a.62.62,0,0,0,.41-.73c-.09-.42-.21-.82-.32-1.23a.74.74,0,0,1,.28-.85c.27-.21.53-.44.81-.63.72-.48,1.45-.94,2.18-1.4a.85.85,0,0,1,1.26.41,2.86,2.86,0,0,1,.15.41c.15.46.32.54.77.37l.11-.06,2.09-1v-.06A21.35,21.35,0,0,0,39.09,21c-1.7-.57-5.75-1.16-6.27-.87.19.1.4.18.58.29a.36.36,0,0,1,.14.26,2.37,2.37,0,0,0,.19,1.12c.17.39.27.45.69.43a1.46,1.46,0,0,1,1.06.3.68.68,0,0,1-.07,1.16c-1.47.56-2.94,1.14-4.41,1.69-1.22.45-2.45.87-3.69,1.28a5.41,5.41,0,0,1-1.15.18.5.5,0,0,1-.53-.35.51.51,0,0,1,.17-.6l.27-.24c1-.74,1.93-1.46,2.88-2.2a13.012,13.012,0,0,0,1.11-1c.05,0,.05-.12.07-.19a.47.47,0,0,0-.2,0,9.44,9.44,0,0,0-.94.32c-.69.3-1.38.6-2,.92a22,22,0,0,0-3.31,1.79,1.51,1.51,0,0,0-.82,1.12,4.62,4.62,0,0,1-.11.63,1.07,1.07,0,0,1-1,.92,2.74,2.74,0,0,1-1.2-.15,4.19,4.19,0,0,0-1-.23,3.16,3.16,0,0,0-1.44.33,1.57,1.57,0,0,1-1,.18.34.34,0,0,0-.4.17,20.4,20.4,0,0,0-2.45,4.31,8.94,8.94,0,0,0-.71,2.27,6.48,6.48,0,0,0,.3,2.77c.31,1,.7,1.95,1.06,2.91a4.88,4.88,0,0,0,1.41,2.06,7.6,7.6,0,0,1,.69.7,1.44,1.44,0,0,1,.39.74,4.4,4.4,0,0,1-.2,1.91,8.16,8.16,0,0,1-1.23,2.19,13.41,13.41,0,0,0-.75,1.28.8.8,0,0,0,0,.75,20.56,20.56,0,0,0,5.44,6.33,20,20,0,0,0,4.71,2.7.39.39,0,0,0,.26,0c1.47-.3,2.93-.62,4.4-.9a12.64,12.64,0,0,1,4-.1,9,9,0,0,1,4.15,1.65.49.49,0,0,0,.35.07A20.125,20.125,0,0,0,52.72,45a25,25,0,0,0,.51-3.53c0-.31,0-.63,0-1a.4.4,0,0,1-.59,0,7.251,7.251,0,0,1-.7-.54c-.89-.78-1.78-1.56-2.66-2.36a.81.81,0,0,0-.86-.15c-.23.07-.28.22-.19.44a3.881,3.881,0,0,1,.15.36A.91.91,0,0,1,48,39.37a2.46,2.46,0,0,1-1.54.06,4.32,4.32,0,0,1-1.82-1.15,25.76,25.76,0,0,1-2.4-2.91,6.56,6.56,0,0,0-1.29-1.43,17.83,17.83,0,0,0-5-2.35,2.33,2.33,0,0,0-2,.18c-.45.26-.94.47-1.42.71m-22.76,9V39.33a4.89,4.89,0,0,0,.09-.53,19.89,19.89,0,0,1,.67-4.27A21.73,21.73,0,0,1,11.77,31,23.08,23.08,0,0,1,16,24.59a22.81,22.81,0,0,1,4.4-3.68A22.48,22.48,0,0,1,26,18.27a23.23,23.23,0,0,1,4.59-.94l1.26-.14h2.21l.4.08c1,.12,1.93.2,2.89.36a20.67,20.67,0,0,1,4.73,1.44,23.28,23.28,0,0,1,10.11,8.38A22.05,22.05,0,0,1,54.9,33a22.589,22.589,0,0,1,.68,2.44A23.649,23.649,0,0,1,56,37.78a20.579,20.579,0,0,1,.17,2.08c0,.68-.06,1.37-.08,2a18.66,18.66,0,0,1-.47,3.49,22,22,0,0,1-1.29,4,23.51,23.51,0,0,1-3.58,5.84,23.79,23.79,0,0,1-5.3,4.66,19.93,19.93,0,0,1-4,2,32.2,32.2,0,0,1-3.21,1,24.059,24.059,0,0,1-2.82.48,15.46,15.46,0,0,1-2.05.16c-.63,0-1.27-.06-1.9-.08A21,21,0,0,1,27.69,63a21.75,21.75,0,0,1-3.79-1.22,23.17,23.17,0,0,1-9.48-7.42,21.31,21.31,0,0,1-2.94-5.19c-.38-1-.7-2-1-3.08a17.85,17.85,0,0,1-.65-4.18,1.63,1.63,0,0,0-.08-.37" fill="#7fbe26"/>
      <path id="Path_2" data-name="Path 2" d="M33.14,33.38a7.38,7.38,0,0,1,2.92.75.17.17,0,0,1,.09.14c-.13.34.08.55.32.69a6.45,6.45,0,0,0,1.09.53c.63.2,1.27.37,1.91.51s1.22.22,1.83.33a.6.6,0,0,1,.24.12,6.63,6.63,0,0,1,1.54,2.27c.12.24.26.47.38.71a3.56,3.56,0,0,0,1.66,1.31c.38.21.75.44,1.13.64a.53.53,0,0,1,.26.64,6.94,6.94,0,0,1-.16.93,1.4,1.4,0,0,1-.44.65,11.05,11.05,0,0,1-1.26.79,3.74,3.74,0,0,0-1.33,1.23c-1,1.42-2,2.84-3.06,4.22a9.72,9.72,0,0,1-2.39,2.31,2.57,2.57,0,0,1-.81.37,1.14,1.14,0,0,1-1.39-.79,6.09,6.09,0,0,1-.44-1.92c-.11-1-.17-2-.29-3s-.28-1.81-.46-2.7A10.62,10.62,0,0,0,34,42.72a1.56,1.56,0,0,0-1.16-.9c-1.16-.34-2.32-.69-3.47-1.08a4.67,4.67,0,0,1-1.6-.92,1.93,1.93,0,0,1-.46-2.67A7.93,7.93,0,0,1,31,33.84a5.59,5.59,0,0,1,2.19-.46" fill="#7fbe26"/>
    </g>
    <rect id="Rectangle_1" data-name="Rectangle 1" width="60" height="60" transform="translate(1235 285)" fill="none"/>
  </g>
</svg>
