<svg xmlns="http://www.w3.org/2000/svg" width="60" height="60" viewBox="0 0 60 60">
  <g id="Group_8" data-name="Group 8" transform="translate(-1784 -285)">
    <path id="section4-financial-icon7" d="M18,49.36A1.94,1.94,0,0,1,16.09,48a2.17,2.17,0,0,1,0-1.16c.48-1.54,1-3.07,1.5-4.51a.32.32,0,0,0,0-.27c-.28-.76-.61-1.67-.87-2.62S16.11,37.2,15.9,36a34,34,0,0,1-.5-3.84,24.1,24.1,0,0,1,0-3.4,25.87,25.87,0,0,1,.44-3,17.08,17.08,0,0,1,1.62-4.51,19.33,19.33,0,0,1,3.32-4.55,24.18,24.18,0,0,1,5.09-4,34,34,0,0,1,5.62-2.66A42.369,42.369,0,0,1,36.91,8.4h.14c1.22-.28,2.48-.57,3.74-.79s2.77-.42,4.18-.6c1.06-.14,2.2-.27,3.33-.33,1.91-.11,3.85-.17,5.66-.22h0a2,2,0,0,1,1,3.6,6.63,6.63,0,0,0-2,2.12,16.37,16.37,0,0,0-2.22,5.6,37.42,37.42,0,0,0-.65,3.86c-.14,1.41-.18,2.82-.22,4.39a28,28,0,0,1-.46,5.07,16,16,0,0,1-3.19,7,15.27,15.27,0,0,1-5.47,4.22A20.27,20.27,0,0,1,37,43.7a26.349,26.349,0,0,1-4.55.74c-1.08.09-2.07.13-3,.13a17.843,17.843,0,0,1-1.81-.06h-.53a4.965,4.965,0,0,1-.86-.05,1.957,1.957,0,0,1-.53-3.79,1.88,1.88,0,0,1,.69-.12h3.25a29.551,29.551,0,0,0,3.62-.22,20.81,20.81,0,0,0,4.21-.94A12.23,12.23,0,0,0,43,35.88,11.24,11.24,0,0,0,45.14,32a18.49,18.49,0,0,0,.8-5.23L46,26c0-1.45.09-2.95.21-4.42a31.261,31.261,0,0,1,.45-3.1l.09-.5A23.289,23.289,0,0,1,48.15,13a18.191,18.191,0,0,1,1.2-2.42l-1,.08c-1.06.09-2.14.18-3.21.3s-2.38.32-3.54.51h-.21a47.189,47.189,0,0,0-5.82,1.34,37.439,37.439,0,0,0-4.78,1.75,25,25,0,0,0-5.48,3.28A15.39,15.39,0,0,0,20.16,25a16.35,16.35,0,0,0-.86,4.45,21.82,21.82,0,0,0,.29,4.91c.13.73.3,1.48.47,2.19l.07.28a50,50,0,0,1,3.71-5.89,44.92,44.92,0,0,1,6.56-7.22,37.37,37.37,0,0,1,4.45-3.41A2,2,0,0,1,35.94,20a1.89,1.89,0,0,1,1.4.61,1.92,1.92,0,0,1,.54,1.53,2,2,0,0,1-.83,1.44l-.8.57c-.48.35-1,.7-1.46,1.07a34.23,34.23,0,0,0-4.47,4.09c-.76.84-1.38,1.55-1.95,2.24A46.91,46.91,0,0,0,21.15,44c-.41,1.08-.76,2.2-1.1,3.29l-.19.57A2,2,0,0,1,18,49.36Z" transform="translate(1778.66 287.54)" fill="#7fbe26"/>
    <rect id="Rectangle_8" data-name="Rectangle 8" width="60" height="60" transform="translate(1784 285)" fill="none"/>
  </g>
</svg>
