<svg xmlns="http://www.w3.org/2000/svg" width="60" height="60" viewBox="0 0 60 60">
  <g id="Group_2" data-name="Group 2" transform="translate(-1316 -285)">
    <g id="section4-financial-icon10" transform="translate(1313.207 282.58)">
      <path id="Path_3" data-name="Path 3" d="M34.45,9.42c7.69.58,13.78,3.93,18,10.35a22.36,22.36,0,0,1-.33,25.12c-4.87,6.91-11.66,10-20.1,9.84v-.6c.12-1.46.25-2.93.36-4.4,0-.17.06-.21.24-.21a17.59,17.59,0,0,0,4.09-.3,17,17,0,0,0,7.06-3.1A17.25,17.25,0,0,0,49.9,38a17.5,17.5,0,0,0-1-14,17.28,17.28,0,0,0-5.2-6A17.1,17.1,0,0,0,37,15c-.77-.15-1.55-.21-2.33-.31-.13,0-.19-.05-.19-.19V9.42" fill="#7fbe26"/>
      <path id="Path_4" data-name="Path 4" d="M11.94,39.12l1.1-.25,3.7-.83c.2,0,.3,0,.38.2a17.24,17.24,0,0,0,5.17,7.26,16.86,16.86,0,0,0,6,3.24c.64.2,1.31.34,2,.49.18,0,.25.1.23.31-.15,1.6-.27,3.2-.4,4.79a.5.5,0,0,0,0,.12,22.59,22.59,0,0,1-18.1-15.33" fill="#7fbe26"/>
      <path id="Path_5" data-name="Path 5" d="M39.47,32V23.42a2.18,2.18,0,0,1,0-.44c.08-.4.23-.52.64-.52H44a.43.43,0,0,1,.47.35,2.57,2.57,0,0,1,.09.61V40.68a1.94,1.94,0,0,1-.09.48c-.08.29-.2.37-.5.38H40.05a.42.42,0,0,1-.47-.32,2.38,2.38,0,0,1-.1-.65V31.99Z" fill="#7fbe26"/>
      <path id="Path_6" data-name="Path 6" d="M15.44,18.29c.55-.62,1.06-1.24,1.62-1.83A22.51,22.51,0,0,1,30.15,9.67c.69-.1,1.38-.14,2.07-.21.2,0,.25,0,.25.24v4.69c0,.21,0,.27-.28.29a15.39,15.39,0,0,0-3.43.58,17.49,17.49,0,0,0-8.68,5.59l-.08.09c-.31.39-.31.39-.72.1l-3.63-2.58-.21-.17" fill="#7fbe26"/>
      <path id="Path_7" data-name="Path 7" d="M14.33,20l4.23,3a17.6,17.6,0,0,0-2.12,13.12l-1.21.28c-1.22.27-2.45.53-3.67.81-.2,0-.21-.08-.23-.19-.11-.61-.24-1.22-.32-1.83a19.9,19.9,0,0,1-.16-4.43c.1-1.07.23-2.14.43-3.19a21.45,21.45,0,0,1,2.58-6.82l.47-.76" fill="#7fbe26"/>
      <path id="Path_8" data-name="Path 8" d="M30.81,34.26v-6.5a1.83,1.83,0,0,1,.07-.46.44.44,0,0,1,.46-.34h4a.43.43,0,0,1,.45.34,1.61,1.61,0,0,1,.07.49v13a1.47,1.47,0,0,1-.07.46.43.43,0,0,1-.46.34h-4a.45.45,0,0,1-.49-.37,1.91,1.91,0,0,1-.06-.48V34.26" fill="#7fbe26"/>
      <path id="Path_9" data-name="Path 9" d="M27.22,36.74V41c0,.45-.15.6-.58.6h-3.9c-.44,0-.58-.14-.58-.58V32.4a.44.44,0,0,1,.5-.51h4.09c.3,0,.47.18.47.51Z" fill="#7fbe26"/>
    </g>
    <rect id="Rectangle_2" data-name="Rectangle 2" width="60" height="60" transform="translate(1316 285)" fill="none"/>
  </g>
</svg>
